<?xml version="1.0" encoding="UTF-8" standalone="no"?><!DOCTYPE svg PUBLIC "-//W3C//DTD SVG 1.1//EN" "http://www.w3.org/Graphics/SVG/1.1/DTD/svg11.dtd"><svg width="100%" height="100%" viewBox="0 0 1727 480" version="1.1" xmlns="http://www.w3.org/2000/svg" xmlns:xlink="http://www.w3.org/1999/xlink" xml:space="preserve" xmlns:serif="http://www.serif.com/" style="fill-rule:evenodd;clip-rule:evenodd;stroke-linejoin:round;stroke-miterlimit:2;"><rect id="Монтажная-область1" serif:id="Монтажная область1" x="0" y="0" width="1727" height="480" style="fill:none;"/><path d="M267.226,460.25l242.226,-435.25c0,0 -242.226,0 -242.226,0l-242.226,435.25l242.226,0Z" style="fill:#00b6ff;fill-opacity:0.37;"/><rect x="167.601" y="210.75" width="199.25" height="63.75" style="fill:#00b6ff;"/><path d="M258.028,274.5c21.379,-38.032 62.121,-63.75 108.823,-63.75c68.851,0 124.75,55.899 124.75,124.75c0,68.851 -55.899,124.75 -124.75,124.75c-46.702,0 -87.444,-25.718 -108.823,-63.75l108.823,0l0,-0.25c33.529,0 60.75,-27.221 60.75,-60.75c0,-33.529 -27.221,-60.75 -60.75,-60.75l0,-0.25l-108.823,0Z" style="fill:#00b6ff;"/><path d="M365.417,25l-199.25,0l-0,63.75l119.25,0l-0,80l80,-143.75Z" style="fill:#00b6ff;"/><path d="M247.601,316.5l-80,143.75l80,0l0,-143.75Zm0,143.75l119.25,0l0,-63.75l-119.25,0l0,63.75Z" style="fill:#00b6ff;"/><path d="M274.99,210.75c-21.379,38.032 -62.121,63.75 -108.823,63.75c-68.851,0 -124.75,-55.899 -124.75,-124.75c-0,-68.851 55.899,-124.75 124.75,-124.75c46.702,0 87.444,25.718 108.823,63.75l-108.823,0l-0,0.25c-33.529,0 -60.75,27.221 -60.75,60.75c-0,33.529 27.221,60.75 60.75,60.75l-0,0.25l108.823,0Z" style="fill:#00b6ff;"/><g transform="matrix(1,0,0,1,-75.5831,-204.375)"><text x="691px" y="556.955px" style="font-family:'Candara-Light', 'Candara', sans-serif;font-size:340px;fill:#00b6ff;fill-opacity:0.5;">GI</text><text x="993.646px" y="556.955px" style="font-family:'Candara-Light', 'Candara', sans-serif;font-size:340px;fill:#00b6ff;">S</text><text x="1163.31px" y="556.955px" style="font-family:'Candara-Light', 'Candara', sans-serif;font-size:340px;fill:#00b6ff;fill-opacity:0.5;">TUD</text></g></svg>