<?xml version="1.0" encoding="UTF-8" standalone="no"?><!DOCTYPE svg PUBLIC "-//W3C//DTD SVG 1.1//EN" "http://www.w3.org/Graphics/SVG/1.1/DTD/svg11.dtd"><svg width="100%" height="100%" viewBox="0 0 512 512" version="1.1" xmlns="http://www.w3.org/2000/svg" xmlns:xlink="http://www.w3.org/1999/xlink" xml:space="preserve" xmlns:serif="http://www.serif.com/" style="fill-rule:evenodd;clip-rule:evenodd;stroke-linejoin:round;stroke-miterlimit:2;"><path d="M504.9,476.7c9.4,-9.4 -132.9,-140.7 -132.9,-140.7c27.6,-35.3 44,-79.7 44,-128c0,-114.9 -93.1,-208 -208,-208c-114.9,0 -208,93.1 -208,208c0,114.9 93.1,208 208,208c48.3,0 92.7,-16.4 128,-44c0,0 131.3,142.4 140.6,133l28.3,-28.3Zm-296.936,-120.648c-70.7,-0 -147.966,-77.254 -147.966,-148.054c-0,-70.7 77.166,-148.045 147.966,-148.045c70.7,0 148.078,77.245 148.078,148.045c0,70.7 -77.278,148.054 -148.078,148.054Z" style="fill:#d0d0d0;fill-rule:nonzero;"/></svg>