<?xml version="1.0" encoding="UTF-8" standalone="no"?><!DOCTYPE svg PUBLIC "-//W3C//DTD SVG 1.1//EN" "http://www.w3.org/Graphics/SVG/1.1/DTD/svg11.dtd"><svg width="100%" height="100%" viewBox="0 0 515 515" version="1.1" xmlns="http://www.w3.org/2000/svg" xmlns:xlink="http://www.w3.org/1999/xlink" xml:space="preserve" xmlns:serif="http://www.serif.com/" style="fill-rule:evenodd;clip-rule:evenodd;stroke-linejoin:round;stroke-miterlimit:2;"><rect id="Монтажная-область2" serif:id="Монтажная область2" x="0" y="0" width="515" height="515" style="fill:none;"/><path d="M257.5,477.75l242.226,-435.25l-242.226,0l-242.226,435.25l242.226,0Z" style="fill:#00b6ff;fill-opacity:0.37;"/><rect x="157.875" y="228.25" width="199.25" height="63.75" style="fill:#00b6ff;"/><path d="M248.302,292c21.379,-38.032 62.121,-63.75 108.823,-63.75c68.851,0 124.75,55.899 124.75,124.75c0,68.851 -55.899,124.75 -124.75,124.75c-46.702,0 -87.444,-25.718 -108.823,-63.75l108.823,0l0,-0.25c33.529,0 60.75,-27.221 60.75,-60.75c-0,-33.529 -27.221,-60.75 -60.75,-60.75l-0,-0.25l-108.823,0Z" style="fill:#00b6ff;"/><path d="M355.691,42.5l-199.25,0l-0,63.75l119.25,0l-0,80l80,-143.75Z" style="fill:#00b6ff;"/><path d="M237.875,334l-80,143.75l80,0l-0,-143.75Zm-0,143.75l119.25,0l-0,-63.75l-119.25,0l-0,63.75Z" style="fill:#00b6ff;"/><path d="M265.263,228.25c-21.378,38.032 -62.12,63.75 -108.822,63.75c-68.852,0 -124.75,-55.899 -124.75,-124.75c-0,-68.851 55.898,-124.75 124.75,-124.75c46.702,0 87.444,25.718 108.822,63.75l-108.822,0l-0,0.25c-33.529,0 -60.75,27.221 -60.75,60.75c-0,33.529 27.221,60.75 60.75,60.75l-0,0.25l108.822,0Z" style="fill:#00b6ff;"/></svg>