<?xml version="1.0" encoding="UTF-8" standalone="no"?><!DOCTYPE svg PUBLIC "-//W3C//DTD SVG 1.1//EN" "http://www.w3.org/Graphics/SVG/1.1/DTD/svg11.dtd"><svg width="100%" height="100%" viewBox="0 0 2197 532" version="1.1" xmlns="http://www.w3.org/2000/svg" xmlns:xlink="http://www.w3.org/1999/xlink" xml:space="preserve" xmlns:serif="http://www.serif.com/" style="fill-rule:evenodd;clip-rule:evenodd;stroke-linejoin:round;stroke-miterlimit:2;"><rect id="Монтажная-область1" serif:id="Монтажная область1" x="0" y="0" width="2196.02" height="531.176" style="fill:none;"/><g><path d="M130.83,460.927l6.142,0l0,36.303l25.329,-36.303l6.143,0l-0,44.792l-6.143,0l0,-36.924l-25.329,36.924l-6.142,0l-0,-44.792Z" style="fill:#494949;fill-rule:nonzero;"/><path d="M180.246,472.315l6.211,0l0,13.872l16.426,0l0,-13.872l6.212,0l-0,33.404l-6.212,0l0,-14.976l-16.426,-0l0,14.976l-6.211,0l-0,-33.404Z" style="fill:#494949;fill-rule:nonzero;"/><path d="M242.292,472.315c4.555,0 8.04,0.288 10.456,0.863c2.415,0.575 4.187,1.714 5.314,3.416c1.127,1.703 1.691,4.256 1.691,7.661l-0,10.214c-0,3.175 -0.541,5.556 -1.622,7.144c-1.081,1.587 -2.841,2.668 -5.28,3.243c-2.438,0.576 -5.958,0.863 -10.559,0.863l-0,13.665l-6.212,0l0,-13.665c-4.601,0 -8.121,-0.287 -10.559,-0.863c-2.439,-0.575 -4.199,-1.656 -5.28,-3.243c-1.081,-1.588 -1.622,-3.969 -1.622,-7.144l-0,-10.214c-0,-3.405 0.564,-5.958 1.691,-7.661c1.127,-1.702 2.898,-2.841 5.314,-3.416c2.416,-0.575 5.901,-0.863 10.456,-0.863l0,-14.424l6.212,-0l-0,14.424Zm-6.212,4.072c-3.267,0 -5.648,0.15 -7.143,0.449c-1.495,0.299 -2.531,0.908 -3.106,1.829c-0.575,0.92 -0.863,2.438 -0.863,4.555l0,12.147c0,1.886 0.299,3.255 0.898,4.106c0.598,0.851 1.656,1.427 3.174,1.726c1.519,0.299 3.865,0.448 7.04,0.448l0,-25.26Zm17.323,6.833c0,-2.117 -0.287,-3.635 -0.862,-4.555c-0.576,-0.921 -1.611,-1.53 -3.106,-1.829c-1.496,-0.299 -3.877,-0.449 -7.143,-0.449l-0,25.26c3.174,0 5.521,-0.149 7.039,-0.448c1.519,-0.299 2.577,-0.875 3.175,-1.726c0.598,-0.851 0.897,-2.22 0.897,-4.106l0,-12.147Z" style="fill:#494949;fill-rule:nonzero;"/><path d="M283.564,506.409c-2.945,0 -5.154,-0.103 -6.626,-0.31c-1.472,-0.207 -2.945,-0.656 -4.417,-1.346c-1.518,-0.69 -2.623,-1.806 -3.313,-3.347c-0.69,-1.542 -1.035,-3.624 -1.035,-6.246l-0,-11.595c-0,-2.071 0.253,-3.888 0.759,-5.453c0.506,-1.564 1.173,-2.783 2.002,-3.657c0.69,-0.783 1.736,-1.392 3.14,-1.829c1.403,-0.437 2.841,-0.725 4.313,-0.863c1.657,-0.092 3.382,-0.138 5.177,-0.138c2.392,-0 4.198,0.057 5.417,0.172c1.22,0.115 2.52,0.357 3.9,0.725c1.426,0.414 2.531,1.035 3.313,1.864c0.782,0.828 1.449,2.024 2.001,3.588c0.506,1.611 0.759,3.474 0.759,5.591l0,11.595c0,3.911 -0.897,6.763 -2.691,8.558c-0.736,0.736 -1.795,1.311 -3.175,1.725c-1.38,0.414 -2.807,0.69 -4.279,0.828c-1.749,0.092 -3.497,0.138 -5.245,0.138Zm-0,-4.072c1.932,0 3.335,-0.046 4.21,-0.138c0.874,-0.092 1.725,-0.345 2.553,-0.759c0.828,-0.368 1.415,-0.978 1.76,-1.829c0.345,-0.851 0.518,-2.036 0.518,-3.554l-0,-13.527c-0,-2.071 -0.253,-3.578 -0.759,-4.521c-0.506,-0.943 -1.369,-1.564 -2.588,-1.864c-1.22,-0.299 -3.118,-0.448 -5.694,-0.448c-2.577,-0 -4.475,0.149 -5.694,0.448c-1.22,0.3 -2.082,0.921 -2.588,1.864c-0.506,0.943 -0.76,2.45 -0.76,4.521l0,13.527c0,1.518 0.173,2.703 0.518,3.554c0.345,0.851 0.932,1.461 1.76,1.829c0.828,0.414 1.679,0.667 2.554,0.759c0.874,0.092 2.277,0.138 4.21,0.138Z" style="fill:#494949;fill-rule:nonzero;"/><path d="M308.617,472.315l6.211,0l0,3.589c0.506,-2.853 4.302,-4.279 11.388,-4.279c4.233,-0 7.431,0.886 9.593,2.657c2.163,1.771 3.244,4.038 3.244,6.798l0,13.735c0,1.978 -0.287,3.703 -0.863,5.176c-0.575,1.472 -1.322,2.622 -2.243,3.451c-0.828,0.782 -1.967,1.403 -3.416,1.863c-1.449,0.46 -2.887,0.759 -4.314,0.897c-1.288,0.138 -2.852,0.207 -4.693,0.207c-2.024,0 -3.876,-0.241 -5.555,-0.724c-1.68,-0.483 -2.727,-1.185 -3.141,-2.105l0,15.804l-6.211,0l-0,-47.069Zm15.045,29.884c2.393,0 4.222,-0.172 5.487,-0.517c1.266,-0.345 2.174,-0.978 2.726,-1.898c0.553,-0.92 0.829,-2.324 0.829,-4.21l-0,-12.285c-0,-2.071 -0.276,-3.612 -0.829,-4.624c-0.552,-1.013 -1.46,-1.691 -2.726,-2.036c-1.265,-0.345 -3.117,-0.518 -5.556,-0.518c-2.438,-0 -4.29,0.173 -5.555,0.518c-1.266,0.345 -2.175,1.023 -2.727,2.036c-0.552,1.012 -0.828,2.553 -0.828,4.624l0,12.285c0,1.84 0.288,3.232 0.863,4.175c0.575,0.943 1.507,1.588 2.795,1.933c1.288,0.345 3.129,0.517 5.521,0.517Z" style="fill:#494949;fill-rule:nonzero;"/><path d="M348.992,472.315l10.007,0l10.145,27.193l0.277,-0l9.455,-27.193l9.662,0l0,33.404l-5.728,0l-0,-27.745l-0.345,0l-10.284,27.745l-6.28,0l-10.698,-27.745l-0.345,0l-0,27.745l-5.866,0l-0,-33.404Z" style="fill:#494949;fill-rule:nonzero;"/><path d="M410.002,506.409c-3.174,0 -5.625,-0.299 -7.35,-0.897c-1.725,-0.598 -2.968,-1.656 -3.727,-3.175c-0.759,-1.518 -1.139,-3.704 -1.139,-6.556c0,-2.531 0.357,-4.498 1.07,-5.901c0.713,-1.404 1.933,-2.404 3.658,-3.002c1.725,-0.599 4.176,-0.898 7.35,-0.898l10.008,0l-0,-5.314c-0,-1.242 -0.242,-2.197 -0.725,-2.864c-0.483,-0.667 -1.288,-1.139 -2.416,-1.415c-1.127,-0.276 -2.772,-0.414 -4.934,-0.414c-3.451,-0 -7.27,0.276 -11.457,0.828l0,-4.555c4.555,-0.414 8.673,-0.621 12.354,-0.621c3.865,-0 6.718,0.287 8.558,0.863c1.841,0.575 3.106,1.575 3.796,3.002c0.69,1.426 1.035,3.635 1.035,6.625l0,23.604l-6.004,0l-0,-3.175c-0.506,2.577 -3.865,3.865 -10.077,3.865Zm1.036,-4.072c2.254,0 4.164,-0.161 5.728,-0.483c2.071,-0.414 3.106,-1.38 3.106,-2.898l-0,-9.111l-9.594,0c-1.978,0 -3.404,0.15 -4.279,0.449c-0.874,0.299 -1.449,0.863 -1.725,1.691c-0.276,0.828 -0.414,2.162 -0.414,4.003c-0,1.656 0.161,2.933 0.483,3.83c0.322,0.897 0.897,1.542 1.725,1.933c0.829,0.391 2.071,0.586 3.727,0.586l1.243,0Z" style="fill:#494949;fill-rule:nonzero;"/><path d="M465.561,505.719l-28.297,0l-0,-33.404l6.211,0l0,28.849l16.495,0l0,-28.849l6.212,0l0,28.849l4.693,0l0,13.113l-5.314,0l-0,-8.558Z" style="fill:#494949;fill-rule:nonzero;"/><path d="M508.144,472.315l0,33.404l-6.211,0l-0,-24.639l-17.393,24.639l-6.211,0l-0,-33.404l6.211,0l0,25.467l17.738,-25.467l5.866,0Z" style="fill:#494949;fill-rule:nonzero;"/><path d="M533.059,506.409c-2.944,0 -5.153,-0.103 -6.625,-0.31c-1.473,-0.207 -2.945,-0.656 -4.417,-1.346c-1.519,-0.69 -2.623,-1.806 -3.313,-3.347c-0.69,-1.542 -1.035,-3.624 -1.035,-6.246l-0,-11.595c-0,-2.071 0.253,-3.888 0.759,-5.453c0.506,-1.564 1.173,-2.783 2.001,-3.657c0.69,-0.783 1.737,-1.392 3.14,-1.829c1.404,-0.437 2.842,-0.725 4.314,-0.863c1.656,-0.092 3.382,-0.138 5.176,-0.138c2.393,-0 4.199,0.057 5.418,0.172c1.219,0.115 2.519,0.357 3.9,0.725c1.426,0.414 2.53,1.035 3.312,1.864c0.783,0.828 1.45,2.024 2.002,3.588c0.506,1.611 0.759,3.474 0.759,5.591l-0,11.595c-0,3.911 -0.897,6.763 -2.692,8.558c-0.736,0.736 -1.794,1.311 -3.174,1.725c-1.381,0.414 -2.807,0.69 -4.279,0.828c-1.749,0.092 -3.497,0.138 -5.246,0.138Zm0,-4.072c1.933,0 3.336,-0.046 4.21,-0.138c0.874,-0.092 1.726,-0.345 2.554,-0.759c0.828,-0.368 1.415,-0.978 1.76,-1.829c0.345,-0.851 0.517,-2.036 0.517,-3.554l0,-13.527c0,-2.071 -0.253,-3.578 -0.759,-4.521c-0.506,-0.943 -1.369,-1.564 -2.588,-1.864c-1.219,-0.299 -3.117,-0.448 -5.694,-0.448c-2.576,-0 -4.474,0.149 -5.694,0.448c-1.219,0.3 -2.082,0.921 -2.588,1.864c-0.506,0.943 -0.759,2.45 -0.759,4.521l0,13.527c0,1.518 0.173,2.703 0.518,3.554c0.345,0.851 0.931,1.461 1.76,1.829c0.828,0.414 1.679,0.667 2.553,0.759c0.874,0.092 2.278,0.138 4.21,0.138Z" style="fill:#494949;fill-rule:nonzero;"/><path d="M558.112,472.315l6.212,0l-0,13.872l16.426,0l-0,-13.872l6.211,0l0,33.404l-6.211,0l-0,-14.976l-16.426,-0l-0,14.976l-6.212,0l0,-33.404Z" style="fill:#494949;fill-rule:nonzero;"/><path d="M597.728,472.315l6.211,0l0,13.872l16.426,0l0,-13.872l6.212,0l-0,33.404l-6.212,0l0,-14.976l-16.426,-0l0,14.976l-6.211,0l-0,-33.404Z" style="fill:#494949;fill-rule:nonzero;"/><path d="M637.344,472.315l6.349,0l0,12.078l6.488,-0c2.852,-0 5.118,0.207 6.798,0.621c1.679,0.414 2.91,1.139 3.692,2.174c0.782,1.035 1.174,2.496 1.174,4.383l-0,6.901c-0,4.832 -4.072,7.247 -12.216,7.247l-12.285,0l-0,-33.404Zm29.815,0l6.211,0l0,33.404l-6.211,0l-0,-33.404Zm-17.945,29.401c1.335,0 2.715,-0.184 4.141,-0.552c1.611,-0.414 2.416,-1.587 2.416,-3.52l0,-4.21c0,-1.334 -0.172,-2.346 -0.518,-3.037c-0.345,-0.69 -0.966,-1.173 -1.863,-1.449c-0.897,-0.276 -2.243,-0.414 -4.037,-0.414l-5.729,-0l0,13.182l5.59,0Z" style="fill:#494949;fill-rule:nonzero;"/><path d="M713.952,472.315l0,33.404l-6.211,0l-0,-24.639l-17.393,24.639l-6.211,0l-0,-33.404l6.211,0l0,25.467l17.738,-25.467l5.866,0Zm-14.907,-4.762c-3.083,-0 -5.522,-0.794 -7.316,-2.381c-1.795,-1.588 -2.761,-3.716 -2.899,-6.384l5.107,-0c0.322,3.589 2.025,5.383 5.108,5.383c3.036,0 4.739,-1.794 5.107,-5.383l5.107,-0c-0.092,2.622 -1.047,4.739 -2.864,6.349c-1.818,1.611 -4.268,2.416 -7.35,2.416Z" style="fill:#494949;fill-rule:nonzero;"/><path d="M754.051,506.409c-2.301,0 -3.969,-0.046 -5.004,-0.138c-1.035,-0.092 -2.22,-0.322 -3.554,-0.69c-1.426,-0.368 -2.531,-0.92 -3.313,-1.656c-0.782,-0.736 -1.449,-1.818 -2.001,-3.244c-0.553,-1.38 -0.829,-3.106 -0.829,-5.176l0,-12.285c0,-3.727 0.714,-6.396 2.14,-8.006c0.782,-0.92 1.576,-1.622 2.381,-2.105c0.805,-0.483 1.852,-0.817 3.14,-1.001c1.289,-0.184 2.439,-0.311 3.451,-0.38c1.012,-0.069 2.439,-0.103 4.279,-0.103c3.175,-0 6.35,0.345 9.524,1.035l0,4.555c-3.68,-0.92 -7.108,-1.38 -10.283,-1.38c-2.393,-0 -4.153,0.172 -5.28,0.518c-1.127,0.345 -1.909,0.966 -2.346,1.863c-0.438,0.897 -0.656,2.266 -0.656,4.106l-0,13.666c-0,1.702 0.241,2.968 0.725,3.796c0.483,0.828 1.357,1.415 2.622,1.76c1.266,0.345 3.14,0.517 5.625,0.517c3.359,0 6.718,-0.437 10.077,-1.311l-0,4.693c-3.129,0.644 -6.695,0.966 -10.698,0.966Z" style="fill:#494949;fill-rule:nonzero;"/><path d="M786.696,506.409c-10.215,0 -15.322,-3.404 -15.322,-10.214l0,-13.182c0,-4.049 1.162,-6.96 3.485,-8.731c2.324,-1.771 6.085,-2.657 11.285,-2.657c4.923,-0 8.477,0.851 10.663,2.554c2.185,1.702 3.278,4.647 3.278,8.834l0,7.384l-22.43,0l-0,5.039c-0,2.3 0.805,3.957 2.415,4.969c1.611,1.012 4.095,1.518 7.454,1.518c3.175,0 6.925,-0.552 11.25,-1.656l-0,4.762c-4.233,0.92 -8.259,1.38 -12.078,1.38Zm7.178,-20.084l-0,-5.245c-0,-2.024 -0.61,-3.416 -1.829,-4.175c-1.22,-0.76 -3.302,-1.139 -6.246,-1.139c-2.853,-0 -4.924,0.379 -6.212,1.139c-1.288,0.759 -1.932,2.151 -1.932,4.175l-0,5.245l16.219,0Z" style="fill:#494949;fill-rule:nonzero;"/><path d="M809.54,472.315l6.212,0l-0,3.589c0.506,-2.853 4.302,-4.279 11.388,-4.279c4.233,-0 7.43,0.886 9.593,2.657c2.163,1.771 3.244,4.038 3.244,6.798l-0,13.735c-0,1.978 -0.288,3.703 -0.863,5.176c-0.575,1.472 -1.323,2.622 -2.243,3.451c-0.828,0.782 -1.967,1.403 -3.416,1.863c-1.45,0.46 -2.887,0.759 -4.314,0.897c-1.288,0.138 -2.853,0.207 -4.693,0.207c-2.024,0 -3.876,-0.241 -5.556,-0.724c-1.679,-0.483 -2.726,-1.185 -3.14,-2.105l-0,15.804l-6.212,0l0,-47.069Zm15.046,29.884c2.393,0 4.222,-0.172 5.487,-0.517c1.265,-0.345 2.174,-0.978 2.726,-1.898c0.552,-0.92 0.828,-2.324 0.828,-4.21l0,-12.285c0,-2.071 -0.276,-3.612 -0.828,-4.624c-0.552,-1.013 -1.461,-1.691 -2.726,-2.036c-1.265,-0.345 -3.117,-0.518 -5.556,-0.518c-2.439,-0 -4.29,0.173 -5.556,0.518c-1.265,0.345 -2.174,1.023 -2.726,2.036c-0.552,1.012 -0.828,2.553 -0.828,4.624l-0,12.285c-0,1.84 0.287,3.232 0.863,4.175c0.575,0.943 1.506,1.588 2.795,1.933c1.288,0.345 3.128,0.517 5.521,0.517Z" style="fill:#494949;fill-rule:nonzero;"/><path d="M849.915,472.315l14.632,0c2.991,0 5.383,0.173 7.178,0.518c1.794,0.345 3.105,0.931 3.933,1.76c0.783,0.782 1.289,1.587 1.519,2.415c0.23,0.828 0.345,1.979 0.345,3.451l-0,1.173c-0,1.795 -0.46,3.129 -1.38,4.003c-0.921,0.875 -2.462,1.542 -4.625,2.002l0,0.276c5.338,0.92 8.006,3.244 8.006,6.971l0,2.001c0,2.255 -0.448,4.015 -1.345,5.28c-0.898,1.265 -2.381,2.174 -4.452,2.726c-2.07,0.552 -4.969,0.828 -8.696,0.828l-15.115,0l0,-33.404Zm15.184,14.079c1.84,0 3.221,-0.149 4.141,-0.448c0.92,-0.299 1.541,-0.782 1.863,-1.449c0.322,-0.668 0.483,-1.691 0.483,-3.072l0,-0.414c0,-1.242 -0.172,-2.162 -0.517,-2.761c-0.345,-0.598 -0.989,-1.023 -1.933,-1.276c-0.943,-0.253 -2.358,-0.38 -4.244,-0.38l-8.765,0l-0,9.8l8.972,0Zm0.276,14.839c2.163,0 3.796,-0.138 4.9,-0.414c1.104,-0.276 1.864,-0.725 2.278,-1.346c0.414,-0.621 0.621,-1.553 0.621,-2.795l-0,-2.209c-0,-1.15 -0.483,-2.116 -1.449,-2.898c-1.013,-0.736 -3.014,-1.105 -6.005,-1.105l-9.593,0l-0,10.767l9.248,0Z" style="fill:#494949;fill-rule:nonzero;"/><path d="M918.863,472.315l-0,33.404l-6.212,0l0,-24.639l-17.392,24.639l-6.211,0l-0,-33.404l6.211,0l0,25.467l17.738,-25.467l5.866,0Z" style="fill:#494949;fill-rule:nonzero;"/><path d="M943.088,506.409c-2.301,0 -3.969,-0.046 -5.004,-0.138c-1.035,-0.092 -2.22,-0.322 -3.554,-0.69c-1.427,-0.368 -2.531,-0.92 -3.313,-1.656c-0.782,-0.736 -1.449,-1.818 -2.002,-3.244c-0.552,-1.38 -0.828,-3.106 -0.828,-5.176l0,-12.285c0,-3.727 0.713,-6.396 2.14,-8.006c0.782,-0.92 1.576,-1.622 2.381,-2.105c0.805,-0.483 1.852,-0.817 3.14,-1.001c1.288,-0.184 2.439,-0.311 3.451,-0.38c1.012,-0.069 2.439,-0.103 4.279,-0.103c3.175,-0 6.35,0.345 9.524,1.035l0,4.555c-3.681,-0.92 -7.108,-1.38 -10.283,-1.38c-2.393,-0 -4.153,0.172 -5.28,0.518c-1.127,0.345 -1.909,0.966 -2.347,1.863c-0.437,0.897 -0.655,2.266 -0.655,4.106l-0,13.666c-0,1.702 0.241,2.968 0.725,3.796c0.483,0.828 1.357,1.415 2.622,1.76c1.265,0.345 3.14,0.517 5.625,0.517c3.359,0 6.718,-0.437 10.076,-1.311l0,4.693c-3.128,0.644 -6.694,0.966 -10.697,0.966Z" style="fill:#494949;fill-rule:nonzero;"/><path d="M1009.21,501.647l-0,13.32l-5.314,0l-0,-9.248l-25.744,0l0,9.248l-5.314,0l0,-13.32l2.14,0c1.012,0 2.001,-0.771 2.967,-2.312c0.967,-1.541 1.772,-4.026 2.416,-7.454c0.644,-3.428 0.966,-7.787 0.966,-13.078l0,-6.488l23.19,0l-0,29.332l4.693,0Zm-10.905,0l0,-25.26l-11.526,0l0,4.831c0,4.785 -0.31,8.892 -0.931,12.32c-0.621,3.428 -1.76,6.131 -3.417,8.109l15.874,0Z" style="fill:#494949;fill-rule:nonzero;"/><path d="M1015.35,505.788c-0.69,0 -1.357,-0.069 -2.001,-0.207l-0,-5.314c0.644,0.138 1.288,0.207 1.932,0.207c1.979,-0 3.555,-1.438 4.728,-4.314c1.173,-2.875 1.76,-8.201 1.76,-15.977l-0,-7.868l22.706,0l0,33.404l-6.211,0l-0,-29.332l-10.974,0l0,4.831c0,7.592 -0.897,13.585 -2.691,17.979c-1.795,4.394 -4.878,6.591 -9.249,6.591Z" style="fill:#494949;fill-rule:nonzero;"/><path d="M1082.16,472.315l-0,33.404l-6.212,0l0,-12.009l-7.316,0l-8.489,12.009l-8.213,0l10.215,-13.182c-2.623,-0.414 -4.521,-1.277 -5.694,-2.588c-1.173,-1.311 -1.76,-3.117 -1.76,-5.418l-0,-3.589c-0,-2.392 0.334,-4.187 1.001,-5.383c0.667,-1.196 1.806,-2.036 3.416,-2.519c1.61,-0.483 4.003,-0.725 7.178,-0.725l15.874,0Zm-6.212,4.279l-9.041,0c-1.702,0 -2.968,0.138 -3.796,0.414c-0.828,0.276 -1.392,0.759 -1.691,1.45c-0.299,0.69 -0.449,1.702 -0.449,3.036l0,2.347c0,1.794 0.426,3.175 1.277,4.141c0.852,0.966 2.151,1.449 3.9,1.449l9.8,0l0,-12.837Z" style="fill:#494949;fill-rule:nonzero;"/><path d="M1122.26,506.409c-2.3,0 -3.968,-0.046 -5.003,-0.138c-1.036,-0.092 -2.22,-0.322 -3.555,-0.69c-1.426,-0.368 -2.53,-0.92 -3.313,-1.656c-0.782,-0.736 -1.449,-1.818 -2.001,-3.244c-0.552,-1.38 -0.828,-3.106 -0.828,-5.176l-0,-12.285c-0,-3.727 0.713,-6.396 2.139,-8.006c0.783,-0.92 1.576,-1.622 2.381,-2.105c0.806,-0.483 1.852,-0.817 3.141,-1.001c1.288,-0.184 2.438,-0.311 3.451,-0.38c1.012,-0.069 2.438,-0.103 4.279,-0.103c3.174,-0 6.349,0.345 9.524,1.035l-0,4.555c-3.681,-0.92 -7.109,-1.38 -10.284,-1.38c-2.392,-0 -4.152,0.172 -5.279,0.518c-1.128,0.345 -1.91,0.966 -2.347,1.863c-0.437,0.897 -0.656,2.266 -0.656,4.106l0,13.666c0,1.702 0.242,2.968 0.725,3.796c0.483,0.828 1.357,1.415 2.623,1.76c1.265,0.345 3.14,0.517 5.625,0.517c3.358,0 6.717,-0.437 10.076,-1.311l-0,4.693c-3.129,0.644 -6.695,0.966 -10.698,0.966Z" style="fill:#494949;fill-rule:nonzero;"/><path d="M1149.24,476.87l-11.733,0l0,-4.555l29.608,0l0,4.555l-11.664,0l0,28.849l-6.211,0l-0,-28.849Z" style="fill:#494949;fill-rule:nonzero;"/><path d="M1182.51,506.202l-12.906,-33.887l6.764,0l9.317,27.262l0.138,-0l8.42,-27.262l6.28,0l-16.771,47.76l-6.487,-0l5.245,-13.873Z" style="fill:#494949;fill-rule:nonzero;"/><path d="M1238,501.647l0,13.32l-5.314,0l0,-9.248l-25.743,0l-0,9.248l-5.314,0l-0,-13.32l2.139,0c1.012,0 2.002,-0.771 2.968,-2.312c0.966,-1.541 1.771,-4.026 2.415,-7.454c0.645,-3.428 0.967,-7.787 0.967,-13.078l-0,-6.488l23.189,0l0,29.332l4.693,0Zm-10.904,0l-0,-25.26l-11.526,0l0,4.831c0,4.785 -0.311,8.892 -0.932,12.32c-0.621,3.428 -1.76,6.131 -3.416,8.109l15.874,0Z" style="fill:#494949;fill-rule:nonzero;"/><path d="M1259.53,506.409c-10.215,0 -15.322,-3.404 -15.322,-10.214l0,-13.182c0,-4.049 1.162,-6.96 3.485,-8.731c2.324,-1.771 6.085,-2.657 11.285,-2.657c4.923,-0 8.477,0.851 10.663,2.554c2.185,1.702 3.278,4.647 3.278,8.834l-0,7.384l-22.43,0l-0,5.039c-0,2.3 0.805,3.957 2.415,4.969c1.611,1.012 4.095,1.518 7.454,1.518c3.175,0 6.925,-0.552 11.25,-1.656l-0,4.762c-4.233,0.92 -8.259,1.38 -12.078,1.38Zm7.177,-20.084l0,-5.245c0,-2.024 -0.609,-3.416 -1.828,-4.175c-1.22,-0.76 -3.302,-1.139 -6.246,-1.139c-2.853,-0 -4.924,0.379 -6.212,1.139c-1.288,0.759 -1.932,2.151 -1.932,4.175l-0,5.245l16.218,0Z" style="fill:#494949;fill-rule:nonzero;"/><path d="M1282.37,472.315l6.212,0l-0,13.872l16.426,0l-0,-13.872l6.211,0l0,33.404l-6.211,0l-0,-14.976l-16.426,-0l-0,14.976l-6.212,0l0,-33.404Z" style="fill:#494949;fill-rule:nonzero;"/><path d="M1330.41,476.87l-11.733,0l0,-4.555l29.608,0l0,4.555l-11.664,0l0,28.849l-6.211,0l-0,-28.849Z" style="fill:#494949;fill-rule:nonzero;"/><path d="M1369.89,506.409c-2.945,0 -5.154,-0.103 -6.626,-0.31c-1.472,-0.207 -2.945,-0.656 -4.417,-1.346c-1.519,-0.69 -2.623,-1.806 -3.313,-3.347c-0.69,-1.542 -1.035,-3.624 -1.035,-6.246l-0,-11.595c-0,-2.071 0.253,-3.888 0.759,-5.453c0.506,-1.564 1.173,-2.783 2.001,-3.657c0.691,-0.783 1.737,-1.392 3.141,-1.829c1.403,-0.437 2.841,-0.725 4.313,-0.863c1.657,-0.092 3.382,-0.138 5.177,-0.138c2.392,-0 4.198,0.057 5.417,0.172c1.22,0.115 2.519,0.357 3.9,0.725c1.426,0.414 2.53,1.035 3.313,1.864c0.782,0.828 1.449,2.024 2.001,3.588c0.506,1.611 0.759,3.474 0.759,5.591l0,11.595c0,3.911 -0.897,6.763 -2.691,8.558c-0.737,0.736 -1.795,1.311 -3.175,1.725c-1.38,0.414 -2.807,0.69 -4.279,0.828c-1.749,0.092 -3.497,0.138 -5.245,0.138Zm-0,-4.072c1.932,0 3.335,-0.046 4.21,-0.138c0.874,-0.092 1.725,-0.345 2.553,-0.759c0.828,-0.368 1.415,-0.978 1.76,-1.829c0.345,-0.851 0.518,-2.036 0.518,-3.554l-0,-13.527c-0,-2.071 -0.253,-3.578 -0.759,-4.521c-0.507,-0.943 -1.369,-1.564 -2.589,-1.864c-1.219,-0.299 -3.117,-0.448 -5.693,-0.448c-2.577,-0 -4.475,0.149 -5.694,0.448c-1.22,0.3 -2.082,0.921 -2.588,1.864c-0.507,0.943 -0.76,2.45 -0.76,4.521l0,13.527c0,1.518 0.173,2.703 0.518,3.554c0.345,0.851 0.932,1.461 1.76,1.829c0.828,0.414 1.679,0.667 2.554,0.759c0.874,0.092 2.277,0.138 4.21,0.138Z" style="fill:#494949;fill-rule:nonzero;"/><path d="M1395.36,472.315l14.631,0c2.991,0 5.384,0.173 7.178,0.518c1.794,0.345 3.106,0.931 3.934,1.76c0.782,0.782 1.288,1.587 1.518,2.415c0.23,0.828 0.345,1.979 0.345,3.451l0,1.173c0,1.795 -0.46,3.129 -1.38,4.003c-0.92,0.875 -2.462,1.542 -4.624,2.002l-0,0.276c5.337,0.92 8.006,3.244 8.006,6.971l-0,2.001c-0,2.255 -0.449,4.015 -1.346,5.28c-0.897,1.265 -2.381,2.174 -4.451,2.726c-2.071,0.552 -4.97,0.828 -8.697,0.828l-15.114,0l-0,-33.404Zm15.183,14.079c1.841,0 3.221,-0.149 4.141,-0.448c0.921,-0.299 1.542,-0.782 1.864,-1.449c0.322,-0.668 0.483,-1.691 0.483,-3.072l-0,-0.414c-0,-1.242 -0.173,-2.162 -0.518,-2.761c-0.345,-0.598 -0.989,-1.023 -1.932,-1.276c-0.943,-0.253 -2.358,-0.38 -4.245,-0.38l-8.765,0l0,9.8l8.972,0Zm0.276,14.839c2.163,0 3.796,-0.138 4.901,-0.414c1.104,-0.276 1.863,-0.725 2.277,-1.346c0.414,-0.621 0.621,-1.553 0.621,-2.795l0,-2.209c0,-1.15 -0.483,-2.116 -1.449,-2.898c-1.012,-0.736 -3.014,-1.105 -6.004,-1.105l-9.594,0l0,10.767l9.248,0Z" style="fill:#494949;fill-rule:nonzero;"/></g><rect x="130.83" y="53.833" width="1224.17" height="342.862" style="fill:#fff;"/><g id="Слой1"><g><path d="M1628.44,396.695c-15.717,0 -29.64,-0.683 -41.769,-2.05c-12.129,-1.366 -24.856,-3.929 -38.181,-7.687c-15.034,-4.1 -27.675,-9.31 -37.925,-15.631c-10.25,-6.321 -18.621,-14.948 -25.113,-25.882c-6.833,-11.616 -10.25,-24.6 -10.25,-38.95l0,-157.337c0,-19.133 4.954,-35.533 14.863,-49.2c9.908,-13.667 23.575,-23.575 41,-29.725c16.741,-5.808 32.714,-9.994 47.918,-12.556c15.205,-2.563 31.69,-3.844 49.457,-3.844c42.366,-0 80.633,2.733 114.8,8.2l-0,38.437c-12.984,-3.075 -31.519,-5.893 -55.607,-8.456c-24.087,-2.562 -43.477,-3.844 -58.168,-3.844c-70.042,0 -105.063,20.159 -105.063,60.475l0,156.825c0,10.934 3.331,20.5 9.994,28.7c6.662,8.2 15.802,14.18 27.419,17.938c10.933,4.1 21.866,6.919 32.8,8.456c10.933,1.538 23.233,2.306 36.9,2.306c22.891,0 47.32,-3.075 73.287,-9.225l0,-116.337l-77.9,-0l0,-34.85l124.025,-0l0,178.862c-44.417,10.25 -85.246,15.375 -122.487,15.375Z" style="fill:#494949;fill-rule:nonzero;"/><rect x="1826.78" y="58.958" width="49.712" height="332.613" style="fill:#494949;fill-rule:nonzero;"/><path d="M2058.43,396.695c-28.358,0 -62.183,-2.733 -101.475,-8.2l0,-41.512c39.633,8.542 74.483,12.812 104.55,12.812c25.283,0 43.733,-2.818 55.35,-8.456c11.617,-5.637 17.425,-16.144 17.425,-31.519l0,-43.05c0,-14.35 -4.1,-24.429 -12.3,-30.237c-8.2,-5.808 -22.55,-8.713 -43.05,-8.713l-38.95,0c-32.458,0 -55.521,-6.491 -69.187,-19.475c-13.667,-12.983 -20.5,-33.141 -20.5,-60.475l-0,-26.65c-0,-18.108 4.014,-32.8 12.043,-44.075c8.03,-11.275 21.525,-19.645 40.488,-25.112c18.962,-5.467 45.014,-8.2 78.156,-8.2c22.208,-0 50.738,1.879 85.588,5.637l-0,37.413c-38.95,-5.808 -68.675,-8.713 -89.175,-8.713c-31.775,0 -52.788,3.075 -63.038,9.225c-10.592,6.492 -15.887,17.255 -15.887,32.288l-0,37.925c-0,11.617 4.185,20.073 12.556,25.369c8.371,5.296 22.806,7.943 43.306,7.943l39.975,0c22.892,0 40.744,2.734 53.556,8.2c12.813,5.467 21.867,13.753 27.163,24.857c5.296,11.104 7.944,26.052 7.944,44.843l-0,24.088c-0,23.575 -4.357,42.196 -13.069,55.862c-8.713,13.667 -22.123,23.405 -40.231,29.213c-18.109,5.808 -41.855,8.712 -71.238,8.712Z" style="fill:#494949;fill-rule:nonzero;"/><path d="M1354.25,16.363l-1341.81,-0l118.392,417.803l1294.13,-0l-70.712,-417.803Zm-1114.82,380.332c-28.358,0 -62.183,-2.733 -101.475,-8.2l0,-41.512c39.633,8.542 74.483,12.812 104.55,12.812c25.283,0 43.733,-2.818 55.35,-8.456c11.617,-5.637 17.425,-16.144 17.425,-31.519l0,-43.05c0,-14.35 -4.1,-24.429 -12.3,-30.237c-8.2,-5.808 -22.55,-8.713 -43.05,-8.713l-38.95,0c-32.458,0 -55.521,-6.491 -69.187,-19.475c-13.667,-12.983 -20.5,-33.141 -20.5,-60.475l-0,-26.65c-0,-18.108 4.014,-32.8 12.043,-44.075c8.03,-11.275 21.525,-19.645 40.488,-25.112c18.962,-5.467 45.014,-8.2 78.156,-8.2c22.208,-0 50.738,1.879 85.588,5.637l-0,37.413c-38.95,-5.808 -68.675,-8.713 -89.175,-8.713c-31.775,0 -52.788,3.075 -63.038,9.225c-10.592,6.492 -15.887,17.255 -15.887,32.288l-0,37.925c-0,11.617 4.185,20.073 12.556,25.369c8.371,5.296 22.806,7.943 43.306,7.943l39.975,0c22.892,0 40.744,2.734 53.556,8.2c12.813,5.467 21.867,13.753 27.163,24.857c5.296,11.104 7.944,26.052 7.944,44.843l-0,24.088c-0,23.575 -4.357,42.196 -13.069,55.862c-8.713,13.667 -22.123,23.405 -40.231,29.213c-18.109,5.808 -41.855,8.712 -71.238,8.712Zm625.25,0c-18.108,0 -33.91,-1.195 -47.406,-3.587c-13.496,-2.392 -26.736,-6.492 -39.719,-12.3c-13.667,-6.15 -24.173,-15.546 -31.519,-28.188c-7.345,-12.641 -11.018,-28.016 -11.018,-46.125l-0,-247.537l47.662,-0l0,247.025c0,20.842 7.004,35.619 21.013,44.331c14.008,8.713 34.679,13.069 62.012,13.069c27.333,-0 47.748,-4.356 61.244,-13.069c13.496,-8.712 20.244,-23.489 20.244,-44.331l-0,-247.025l47.662,-0l0,247.537c0,60.134 -43.392,90.2 -130.175,90.2Zm216.788,-337.737l132.225,-0c93.275,-0 139.912,31.775 139.912,95.325l0,147.087c0,60.134 -46.467,90.2 -139.4,90.2l-132.737,0l-0,-332.612Zm-564.263,34.85l-112.75,-0l0,-34.85l275.213,-0l-0,34.85l-112.238,-0l0,297.762l-50.225,0l0,-297.762Zm693.413,263.937c63.55,0 95.325,-19.133 95.325,-57.4l-0,-146.575c-0,-12.3 -2.563,-22.72 -7.688,-31.262c-5.125,-8.542 -12.3,-14.863 -21.525,-18.963c-9.225,-3.758 -18.792,-6.406 -28.7,-7.943c-9.908,-1.538 -21.525,-2.307 -34.85,-2.307l-82,0l0,264.45l79.438,0Z" style="fill:#1976d2;fill-rule:nonzero;"/></g></g></svg>