<?xml version="1.0" encoding="UTF-8" standalone="no"?><!DOCTYPE svg PUBLIC "-//W3C//DTD SVG 1.1//EN" "http://www.w3.org/Graphics/SVG/1.1/DTD/svg11.dtd"><svg width="100%" height="100%" viewBox="0 0 2203 460" version="1.1" xmlns="http://www.w3.org/2000/svg" xmlns:xlink="http://www.w3.org/1999/xlink" xml:space="preserve" xmlns:serif="http://www.serif.com/" style="fill-rule:evenodd;clip-rule:evenodd;stroke-linejoin:round;stroke-miterlimit:2;"><rect id="Монтажная-область1" serif:id="Монтажная область1" x="0" y="0" width="2202.3" height="459.822" style="fill:none;"/><g id="Слой1"><g><path d="M1634.72,396.695c-15.717,0 -29.64,-0.683 -41.769,-2.05c-12.129,-1.366 -24.856,-3.929 -38.181,-7.687c-15.034,-4.1 -27.675,-9.31 -37.925,-15.631c-10.25,-6.321 -18.621,-14.948 -25.113,-25.882c-6.833,-11.616 -10.25,-24.6 -10.25,-38.95l0,-157.337c0,-19.133 4.954,-35.533 14.863,-49.2c9.908,-13.667 23.575,-23.575 41,-29.725c16.741,-5.808 32.714,-9.994 47.918,-12.556c15.205,-2.563 31.69,-3.844 49.457,-3.844c42.366,-0 80.633,2.733 114.8,8.2l-0,38.437c-12.984,-3.075 -31.519,-5.893 -55.607,-8.456c-24.087,-2.562 -43.477,-3.844 -58.168,-3.844c-70.042,0 -105.063,20.159 -105.063,60.475l0,156.825c0,10.934 3.331,20.5 9.994,28.7c6.662,8.2 15.802,14.18 27.419,17.938c10.933,4.1 21.866,6.919 32.8,8.456c10.933,1.538 23.233,2.306 36.9,2.306c22.891,0 47.321,-3.075 73.287,-9.225l0,-116.337l-77.9,-0l0,-34.85l124.025,-0l0,178.862c-44.416,10.25 -85.246,15.375 -122.487,15.375Z" style="fill:#515151;fill-rule:nonzero;"/><rect x="1833.06" y="58.958" width="49.712" height="332.613" style="fill:#515151;fill-rule:nonzero;"/><path d="M2064.71,396.695c-28.358,0 -62.183,-2.733 -101.475,-8.2l0,-41.512c39.634,8.542 74.484,12.812 104.55,12.812c25.284,0 43.734,-2.818 55.35,-8.456c11.617,-5.637 17.425,-16.144 17.425,-31.519l0,-43.05c0,-14.35 -4.1,-24.429 -12.3,-30.237c-8.2,-5.808 -22.55,-8.713 -43.05,-8.713l-38.95,0c-32.458,0 -55.521,-6.491 -69.187,-19.475c-13.667,-12.983 -20.5,-33.141 -20.5,-60.475l-0,-26.65c-0,-18.108 4.014,-32.8 12.043,-44.075c8.03,-11.275 21.525,-19.645 40.488,-25.112c18.962,-5.467 45.015,-8.2 78.156,-8.2c22.209,-0 50.738,1.879 85.588,5.637l-0,37.413c-38.95,-5.808 -68.675,-8.713 -89.175,-8.713c-31.775,0 -52.788,3.075 -63.038,9.225c-10.591,6.492 -15.887,17.255 -15.887,32.288l-0,37.925c-0,11.617 4.185,20.073 12.556,25.369c8.371,5.296 22.806,7.943 43.306,7.943l39.975,0c22.892,0 40.744,2.734 53.556,8.2c12.813,5.467 21.867,13.753 27.163,24.857c5.296,11.104 7.944,26.052 7.944,44.843l-0,24.088c-0,23.575 -4.357,42.196 -13.069,55.862c-8.713,13.667 -22.123,23.405 -40.231,29.213c-18.109,5.808 -41.854,8.712 -71.238,8.712Z" style="fill:#515151;fill-rule:nonzero;"/><g><path d="M1370.53,6.363l-1341.81,-0l118.392,417.803l1294.13,-0l-70.712,-417.803Zm-1114.82,380.332c-28.358,0 -62.183,-2.733 -101.475,-8.2l0,-41.512c39.634,8.542 74.484,12.812 104.55,12.812c25.284,0 43.734,-2.818 55.35,-8.456c11.617,-5.637 17.425,-16.144 17.425,-31.519l0,-43.05c0,-14.35 -4.1,-24.429 -12.3,-30.237c-8.2,-5.808 -22.55,-8.713 -43.05,-8.713l-38.95,0c-32.458,0 -55.521,-6.491 -69.187,-19.475c-13.667,-12.983 -20.5,-33.141 -20.5,-60.475l-0,-26.65c-0,-18.108 4.014,-32.8 12.043,-44.075c8.03,-11.275 21.525,-19.645 40.488,-25.112c18.962,-5.467 45.015,-8.2 78.156,-8.2c22.209,-0 50.738,1.879 85.588,5.637l-0,37.413c-38.95,-5.808 -68.675,-8.713 -89.175,-8.713c-31.775,0 -52.788,3.075 -63.038,9.225c-10.591,6.492 -15.887,17.255 -15.887,32.288l-0,37.925c-0,11.617 4.185,20.073 12.556,25.369c8.371,5.296 22.806,7.943 43.306,7.943l39.975,0c22.892,0 40.744,2.734 53.556,8.2c12.813,5.467 21.867,13.753 27.163,24.857c5.296,11.104 7.944,26.052 7.944,44.843l-0,24.088c-0,23.575 -4.357,42.196 -13.069,55.862c-8.713,13.667 -22.123,23.405 -40.231,29.213c-18.109,5.808 -41.854,8.712 -71.238,8.712Zm625.25,0c-18.108,0 -33.91,-1.195 -47.406,-3.587c-13.496,-2.392 -26.735,-6.492 -39.719,-12.3c-13.666,-6.15 -24.173,-15.546 -31.519,-28.188c-7.345,-12.641 -11.018,-28.016 -11.018,-46.125l-0,-247.537l47.662,-0l0,247.025c0,20.842 7.004,35.619 21.013,44.331c14.008,8.713 34.679,13.069 62.012,13.069c27.334,-0 47.748,-4.356 61.244,-13.069c13.496,-8.712 20.244,-23.489 20.244,-44.331l-0,-247.025l47.662,-0l0,247.537c0,60.134 -43.391,90.2 -130.175,90.2Zm216.788,-337.737l132.225,-0c93.275,-0 139.912,31.775 139.912,95.325l0,147.087c0,60.134 -46.466,90.2 -139.4,90.2l-132.737,0l-0,-332.612Zm-564.263,34.85l-112.75,-0l0,-34.85l275.213,-0l-0,34.85l-112.238,-0l0,297.762l-50.225,0l0,-297.762Zm693.413,263.937c63.55,0 95.325,-19.133 95.325,-57.4l-0,-146.575c-0,-12.3 -2.563,-22.72 -7.688,-31.262c-5.125,-8.542 -12.3,-14.863 -21.525,-18.963c-9.225,-3.758 -18.791,-6.406 -28.7,-7.943c-9.908,-1.538 -21.525,-2.307 -34.85,-2.307l-82,0l0,264.45l79.438,0Z" style="fill:#fff;fill-rule:nonzero;"/><path d="M1373.53,26.363l-1341.81,-0l118.392,417.803l1294.13,-0l-70.712,-417.803Zm-1114.82,380.332c-28.358,0 -62.183,-2.733 -101.475,-8.2l0,-41.512c39.634,8.542 74.484,12.812 104.55,12.812c25.284,0 43.734,-2.818 55.35,-8.456c11.617,-5.637 17.425,-16.144 17.425,-31.519l0,-43.05c0,-14.35 -4.1,-24.429 -12.3,-30.237c-8.2,-5.808 -22.55,-8.713 -43.05,-8.713l-38.95,0c-32.458,0 -55.521,-6.491 -69.187,-19.475c-13.667,-12.983 -20.5,-33.141 -20.5,-60.475l-0,-26.65c-0,-18.108 4.014,-32.8 12.043,-44.075c8.03,-11.275 21.525,-19.645 40.488,-25.112c18.962,-5.467 45.015,-8.2 78.156,-8.2c22.209,-0 50.738,1.879 85.588,5.637l-0,37.413c-38.95,-5.808 -68.675,-8.713 -89.175,-8.713c-31.775,0 -52.788,3.075 -63.038,9.225c-10.591,6.492 -15.887,17.255 -15.887,32.288l-0,37.925c-0,11.617 4.185,20.073 12.556,25.369c8.371,5.296 22.806,7.943 43.306,7.943l39.975,0c22.892,0 40.744,2.734 53.556,8.2c12.813,5.467 21.867,13.753 27.163,24.857c5.296,11.104 7.944,26.052 7.944,44.843l-0,24.088c-0,23.575 -4.357,42.196 -13.069,55.862c-8.713,13.667 -22.123,23.405 -40.231,29.213c-18.109,5.808 -41.854,8.712 -71.238,8.712Zm625.25,0c-18.108,0 -33.91,-1.195 -47.406,-3.587c-13.496,-2.392 -26.735,-6.492 -39.719,-12.3c-13.666,-6.15 -24.173,-15.546 -31.519,-28.188c-7.345,-12.641 -11.018,-28.016 -11.018,-46.125l-0,-247.537l47.662,-0l0,247.025c0,20.842 7.004,35.619 21.013,44.331c14.008,8.713 34.679,13.069 62.012,13.069c27.334,-0 47.748,-4.356 61.244,-13.069c13.496,-8.712 20.244,-23.489 20.244,-44.331l-0,-247.025l47.662,-0l0,247.537c0,60.134 -43.391,90.2 -130.175,90.2Zm216.788,-337.737l132.225,-0c93.275,-0 139.912,31.775 139.912,95.325l0,147.087c0,60.134 -46.466,90.2 -139.4,90.2l-132.737,0l-0,-332.612Zm-564.263,34.85l-112.75,-0l0,-34.85l275.213,-0l-0,34.85l-112.238,-0l0,297.762l-50.225,0l0,-297.762Zm693.413,263.937c63.55,0 95.325,-19.133 95.325,-57.4l-0,-146.575c-0,-12.3 -2.563,-22.72 -7.688,-31.262c-5.125,-8.542 -12.3,-14.863 -21.525,-18.963c-9.225,-3.758 -18.791,-6.406 -28.7,-7.943c-9.908,-1.538 -21.525,-2.307 -34.85,-2.307l-82,0l0,264.45l79.438,0Z" style="fill:#fff;fill-rule:nonzero;"/><path d="M1350.53,26.363l-1341.81,-0l118.392,417.803l1294.13,-0l-70.712,-417.803Zm-1114.82,380.332c-28.358,0 -62.183,-2.733 -101.475,-8.2l0,-41.512c39.634,8.542 74.484,12.812 104.55,12.812c25.284,0 43.734,-2.818 55.35,-8.456c11.617,-5.637 17.425,-16.144 17.425,-31.519l0,-43.05c0,-14.35 -4.1,-24.429 -12.3,-30.237c-8.2,-5.808 -22.55,-8.713 -43.05,-8.713l-38.95,0c-32.458,0 -55.521,-6.491 -69.187,-19.475c-13.667,-12.983 -20.5,-33.141 -20.5,-60.475l-0,-26.65c-0,-18.108 4.014,-32.8 12.043,-44.075c8.03,-11.275 21.525,-19.645 40.488,-25.112c18.962,-5.467 45.015,-8.2 78.156,-8.2c22.209,-0 50.738,1.879 85.588,5.637l-0,37.413c-38.95,-5.808 -68.675,-8.713 -89.175,-8.713c-31.775,0 -52.788,3.075 -63.038,9.225c-10.591,6.492 -15.887,17.255 -15.887,32.288l-0,37.925c-0,11.617 4.185,20.073 12.556,25.369c8.371,5.296 22.806,7.943 43.306,7.943l39.975,0c22.892,0 40.744,2.734 53.556,8.2c12.813,5.467 21.867,13.753 27.163,24.857c5.296,11.104 7.944,26.052 7.944,44.843l-0,24.088c-0,23.575 -4.357,42.196 -13.069,55.862c-8.713,13.667 -22.123,23.405 -40.231,29.213c-18.109,5.808 -41.854,8.712 -71.238,8.712Zm625.25,0c-18.108,0 -33.91,-1.195 -47.406,-3.587c-13.496,-2.392 -26.735,-6.492 -39.719,-12.3c-13.666,-6.15 -24.173,-15.546 -31.519,-28.188c-7.345,-12.641 -11.018,-28.016 -11.018,-46.125l-0,-247.537l47.662,-0l0,247.025c0,20.842 7.004,35.619 21.013,44.331c14.008,8.713 34.679,13.069 62.012,13.069c27.334,-0 47.748,-4.356 61.244,-13.069c13.496,-8.712 20.244,-23.489 20.244,-44.331l-0,-247.025l47.662,-0l0,247.537c0,60.134 -43.391,90.2 -130.175,90.2Zm216.788,-337.737l132.225,-0c93.275,-0 139.912,31.775 139.912,95.325l0,147.087c0,60.134 -46.466,90.2 -139.4,90.2l-132.737,0l-0,-332.612Zm-564.263,34.85l-112.75,-0l0,-34.85l275.213,-0l-0,34.85l-112.238,-0l0,297.762l-50.225,0l0,-297.762Zm693.413,263.937c63.55,0 95.325,-19.133 95.325,-57.4l-0,-146.575c-0,-12.3 -2.563,-22.72 -7.688,-31.262c-5.125,-8.542 -12.3,-14.863 -21.525,-18.963c-9.225,-3.758 -18.791,-6.406 -28.7,-7.943c-9.908,-1.538 -21.525,-2.307 -34.85,-2.307l-82,0l0,264.45l79.438,0Z" style="fill:#fff;fill-rule:nonzero;"/><path d="M1344.53,6.363l-1341.81,-0l118.392,417.803l1294.13,-0l-70.712,-417.803Zm-1114.82,380.332c-28.358,0 -62.183,-2.733 -101.475,-8.2l0,-41.512c39.634,8.542 74.484,12.812 104.55,12.812c25.284,0 43.734,-2.818 55.35,-8.456c11.617,-5.637 17.425,-16.144 17.425,-31.519l0,-43.05c0,-14.35 -4.1,-24.429 -12.3,-30.237c-8.2,-5.808 -22.55,-8.713 -43.05,-8.713l-38.95,0c-32.458,0 -55.521,-6.491 -69.187,-19.475c-13.667,-12.983 -20.5,-33.141 -20.5,-60.475l-0,-26.65c-0,-18.108 4.014,-32.8 12.043,-44.075c8.03,-11.275 21.525,-19.645 40.488,-25.112c18.962,-5.467 45.015,-8.2 78.156,-8.2c22.209,-0 50.738,1.879 85.588,5.637l-0,37.413c-38.95,-5.808 -68.675,-8.713 -89.175,-8.713c-31.775,0 -52.788,3.075 -63.038,9.225c-10.591,6.492 -15.887,17.255 -15.887,32.288l-0,37.925c-0,11.617 4.185,20.073 12.556,25.369c8.371,5.296 22.806,7.943 43.306,7.943l39.975,0c22.892,0 40.744,2.734 53.556,8.2c12.813,5.467 21.867,13.753 27.163,24.857c5.296,11.104 7.944,26.052 7.944,44.843l-0,24.088c-0,23.575 -4.357,42.196 -13.069,55.862c-8.713,13.667 -22.123,23.405 -40.231,29.213c-18.109,5.808 -41.854,8.712 -71.238,8.712Zm625.25,0c-18.108,0 -33.91,-1.195 -47.406,-3.587c-13.496,-2.392 -26.735,-6.492 -39.719,-12.3c-13.666,-6.15 -24.173,-15.546 -31.519,-28.188c-7.345,-12.641 -11.018,-28.016 -11.018,-46.125l-0,-247.537l47.662,-0l0,247.025c0,20.842 7.004,35.619 21.013,44.331c14.008,8.713 34.679,13.069 62.012,13.069c27.334,-0 47.748,-4.356 61.244,-13.069c13.496,-8.712 20.244,-23.489 20.244,-44.331l-0,-247.025l47.662,-0l0,247.537c0,60.134 -43.391,90.2 -130.175,90.2Zm216.788,-337.737l132.225,-0c93.275,-0 139.912,31.775 139.912,95.325l0,147.087c0,60.134 -46.466,90.2 -139.4,90.2l-132.737,0l-0,-332.612Zm-564.263,34.85l-112.75,-0l0,-34.85l275.213,-0l-0,34.85l-112.238,-0l0,297.762l-50.225,0l0,-297.762Zm693.413,263.937c63.55,0 95.325,-19.133 95.325,-57.4l-0,-146.575c-0,-12.3 -2.563,-22.72 -7.688,-31.262c-5.125,-8.542 -12.3,-14.863 -21.525,-18.963c-9.225,-3.758 -18.791,-6.406 -28.7,-7.943c-9.908,-1.538 -21.525,-2.307 -34.85,-2.307l-82,0l0,264.45l79.438,0Z" style="fill:#fff;fill-rule:nonzero;"/></g><rect x="137.106" y="53.833" width="1224.17" height="342.862" style="fill:#1976d2;"/><path d="M1360.53,16.363l-1341.81,-0l118.392,417.803l1294.13,-0l-70.712,-417.803Zm-1114.82,380.332c-28.358,0 -62.183,-2.733 -101.475,-8.2l0,-41.512c39.634,8.542 74.484,12.812 104.55,12.812c25.284,0 43.734,-2.818 55.35,-8.456c11.617,-5.637 17.425,-16.144 17.425,-31.519l0,-43.05c0,-14.35 -4.1,-24.429 -12.3,-30.237c-8.2,-5.808 -22.55,-8.713 -43.05,-8.713l-38.95,0c-32.458,0 -55.521,-6.491 -69.187,-19.475c-13.667,-12.983 -20.5,-33.141 -20.5,-60.475l-0,-26.65c-0,-18.108 4.014,-32.8 12.043,-44.075c8.03,-11.275 21.525,-19.645 40.488,-25.112c18.962,-5.467 45.015,-8.2 78.156,-8.2c22.209,-0 50.738,1.879 85.588,5.637l-0,37.413c-38.95,-5.808 -68.675,-8.713 -89.175,-8.713c-31.775,0 -52.788,3.075 -63.038,9.225c-10.591,6.492 -15.887,17.255 -15.887,32.288l-0,37.925c-0,11.617 4.185,20.073 12.556,25.369c8.371,5.296 22.806,7.943 43.306,7.943l39.975,0c22.892,0 40.744,2.734 53.556,8.2c12.813,5.467 21.867,13.753 27.163,24.857c5.296,11.104 7.944,26.052 7.944,44.843l-0,24.088c-0,23.575 -4.357,42.196 -13.069,55.862c-8.713,13.667 -22.123,23.405 -40.231,29.213c-18.109,5.808 -41.854,8.712 -71.238,8.712Zm625.25,0c-18.108,0 -33.91,-1.195 -47.406,-3.587c-13.496,-2.392 -26.735,-6.492 -39.719,-12.3c-13.666,-6.15 -24.173,-15.546 -31.519,-28.188c-7.345,-12.641 -11.018,-28.016 -11.018,-46.125l-0,-247.537l47.662,-0l0,247.025c0,20.842 7.004,35.619 21.013,44.331c14.008,8.713 34.679,13.069 62.012,13.069c27.334,-0 47.748,-4.356 61.244,-13.069c13.496,-8.712 20.244,-23.489 20.244,-44.331l-0,-247.025l47.662,-0l0,247.537c0,60.134 -43.391,90.2 -130.175,90.2Zm216.788,-337.737l132.225,-0c93.275,-0 139.912,31.775 139.912,95.325l0,147.087c0,60.134 -46.466,90.2 -139.4,90.2l-132.737,0l-0,-332.612Zm-564.263,34.85l-112.75,-0l0,-34.85l275.213,-0l-0,34.85l-112.238,-0l0,297.762l-50.225,0l0,-297.762Zm693.413,263.937c63.55,0 95.325,-19.133 95.325,-57.4l-0,-146.575c-0,-12.3 -2.563,-22.72 -7.688,-31.262c-5.125,-8.542 -12.3,-14.863 -21.525,-18.963c-9.225,-3.758 -18.791,-6.406 -28.7,-7.943c-9.908,-1.538 -21.525,-2.307 -34.85,-2.307l-82,0l0,264.45l79.438,0Z" style="fill:#fff;fill-rule:nonzero;"/></g></g></svg>